<?xml version="1.0" standalone="no"?><!DOCTYPE svg PUBLIC "-//W3C//DTD SVG 1.1//EN" "http://www.w3.org/Graphics/SVG/1.1/DTD/svg11.dtd"><svg t="1670574139125" class="icon" viewBox="0 0 1024 1024" version="1.1" xmlns="http://www.w3.org/2000/svg" p-id="2519" width="16" height="16" xmlns:xlink="http://www.w3.org/1999/xlink"><path d="M564.2 138.8c0.1-10.3-10.5-17.4-20.6-13.9L212.7 243.6c-6 2.1-10 7.7-10 13.9v572.6h361.5V138.8zM359.8 716.3c0 12.3-10.2 22.3-23 22.3h-40.2c-12.7 0-23-9.9-23-22.3v-14.8c0-12.3 10.2-22.3 23-22.3h40.2c12.7 0 23 9.9 23 22.3v14.8z m0-86.8c0 12.3-10.2 22.3-23 22.3h-40.2c-12.7 0-23-9.9-23-22.3v-14.8c0-12.3 10.2-22.3 23-22.3h40.2c12.7 0 23 9.9 23 22.3v14.8z m0-91.3c0 12.3-10.2 22.3-23 22.3h-40.2c-12.7 0-23-9.9-23-22.3v-14.8c0-12.3 10.2-22.3 23-22.3h40.2c12.7 0 23 9.9 23 22.3v14.8z m0-89.5c0 12.3-10.2 22.3-23 22.3h-40.2c-12.7 0-23-9.9-23-22.3v-14.8c0-12.3 10.2-22.3 23-22.3h40.2c12.7 0 23 9.9 23 22.3v14.8z m0-89.4c0 12.3-10.2 22.3-23 22.3h-40.2c-12.7 0-23-9.9-23-22.3v-14.8c0-12.3 10.2-22.3 23-22.3h40.2c12.7 0 23 9.9 23 22.3v14.8z m135.8 357c0 12.3-10.2 22.3-23 22.3h-40.2c-12.7 0-23-9.9-23-22.3v-14.8c0-12.3 10.2-22.3 23-22.3h40.2c12.7 0 23 9.9 23 22.3v14.8z m0-86.8c0 12.3-10.2 22.3-23 22.3h-40.2c-12.7 0-23-9.9-23-22.3v-14.8c0-12.3 10.2-22.3 23-22.3h40.2c12.7 0 23 9.9 23 22.3v14.8z m0-91.3c0 12.3-10.2 22.3-23 22.3h-40.2c-12.7 0-23-9.9-23-22.3v-14.8c0-12.3 10.2-22.3 23-22.3h40.2c12.7 0 23 9.9 23 22.3v14.8z m0-89.5c0 12.3-10.2 22.3-23 22.3h-40.2c-12.7 0-23-9.9-23-22.3v-14.8c0-12.3 10.2-22.3 23-22.3h40.2c12.7 0 23 9.9 23 22.3v14.8z m0-89.4c0 12.3-10.2 22.3-23 22.3h-40.2c-12.7 0-23-9.9-23-22.3v-14.8c0-12.3 10.2-22.3 23-22.3h40.2c12.7 0 23 9.9 23 22.3v14.8z m0-87.3c0 12.3-10.2 22.3-23 22.3h-40.2c-12.7 0-23-9.9-23-22.3v-14.8c0-12.3 10.2-22.3 23-22.3h40.2c12.7 0 23 9.9 23 22.3V272zM838.2 338.3c0.1-5.5-3-10.5-7.9-13.1L613.4 211.6c-10.2-5.4-22.6 1.9-22.6 13.1v605.5h247.4V338.3z m-83.6 378c0 12.3-10.2 22.3-23 22.3h-40.2c-12.7 0-23-9.9-23-22.3v-14.8c0-12.3 10.2-22.3 23-22.3h40.2c12.7 0 23 9.9 23 22.3v14.8z m0-86.8c0 12.3-10.2 22.3-23 22.3h-40.2c-12.7 0-23-9.9-23-22.3v-14.8c0-12.3 10.2-22.3 23-22.3h40.2c12.7 0 23 9.9 23 22.3v14.8z m0-91.3c0 12.3-10.2 22.3-23 22.3h-40.2c-12.7 0-23-9.9-23-22.3v-14.8c0-12.3 10.2-22.3 23-22.3h40.2c12.7 0 23 9.9 23 22.3v14.8z m0-89.5c0 12.3-10.2 22.3-23 22.3h-40.2c-12.7 0-23-9.9-23-22.3v-14.8c0-12.3 10.2-22.3 23-22.3h40.2c12.7 0 23 9.9 23 22.3v14.8z m0-89.4c0 12.3-10.2 22.3-23 22.3h-40.2c-12.7 0-23-9.9-23-22.3v-14.8c0-12.3 10.2-22.3 23-22.3h40.2c12.7 0 23 9.9 23 22.3v14.8z" fill="#66AFFF" p-id="2520"></path><path d="M876 900.8H147.2c-8.4 0-15.2-8-15.2-17.7v-35.3c0-9.7 6.8-17.7 15.2-17.7H876c8.4 0 15.2 8 15.2 17.7v35.3c0 9.8-6.8 17.7-15.2 17.7z" fill="#66AFFF" p-id="2521"></path></svg>