<?xml version="1.0" standalone="no"?><!DOCTYPE svg PUBLIC "-//W3C//DTD SVG 1.1//EN" "http://www.w3.org/Graphics/SVG/1.1/DTD/svg11.dtd"><svg t="1670574966540" class="icon" viewBox="0 0 1024 1024" version="1.1" xmlns="http://www.w3.org/2000/svg" p-id="5181" xmlns:xlink="http://www.w3.org/1999/xlink" width="16" height="16"><path d="M837.0688 652.1856c-47.9232-121.856-160.6144-205.4656-290.4064-216.6784v-48.7424c67.1744-15.1552 117.5552-75.264 117.5552-146.9952 0-83.0976-67.6352-150.7328-150.7328-150.7328S362.752 156.672 362.752 239.7696c0 75.2128 55.3984 137.7792 127.5392 148.9408V435.2a343.38304 343.38304 0 0 0-293.5296 216.4224c-64.0512 6.6048-114.176 60.928-114.176 126.6688 0 70.2464 57.1392 127.3856 127.3856 127.3856s127.3856-57.1392 127.3856-127.3856c0-54.4768-34.4064-101.0688-82.5856-119.2448a287.08352 287.08352 0 0 1 235.52-167.3216v161.9968c-57.5488 12.2368-100.864 63.4368-100.864 124.5696 0 70.2464 57.1392 127.3856 127.3856 127.3856s127.3856-57.1392 127.3856-127.3856c0-59.9552-41.6768-110.336-97.536-123.8016V492.0832a287.44704 287.44704 0 0 1 231.6288 165.7344c-50.0736 17.152-86.1696 64.6656-86.1696 120.4736 0 70.2464 57.1392 127.3856 127.3856 127.3856s127.3856-57.1392 127.3856-127.3856c-0.0512-64.2048-47.9232-117.504-109.824-126.1056zM281.088 778.3424c0 39.168-31.8976 71.0656-71.0656 71.0656s-71.0656-31.8976-71.0656-71.0656 31.8976-71.0656 71.0656-71.0656 71.0656 31.8464 71.0656 71.0656z m137.984-538.624c0-52.0704 42.3424-94.4128 94.4128-94.4128 52.0704 0 94.4128 42.3424 94.4128 94.4128 0 52.0704-42.3424 94.4128-94.4128 94.4128-52.0704 0-94.4128-42.3424-94.4128-94.4128z m168.8064 538.624c0 39.168-31.8976 71.0656-71.0656 71.0656s-71.0656-31.8976-71.0656-71.0656 31.8976-71.0656 71.0656-71.0656 71.0656 31.8464 71.0656 71.0656z m231.5776 71.0144c-39.168 0-71.0656-31.8976-71.0656-71.0656s31.8976-71.0656 71.0656-71.0656 71.0656 31.8976 71.0656 71.0656-31.8976 71.0656-71.0656 71.0656z" fill="#17abe3" p-id="5182"></path></svg>